<svg xmlns="http://www.w3.org/2000/svg" viewBox="0 0 1200 800" width="1200" height="800" preserveAspectRatio="xMidYMid slice">
<defs><filter id="grain" x="0" y="0" width="100%" height="100%"><feTurbulence type="fractalNoise" baseFrequency="0.9" numOctaves="2" stitchTiles="stitch"/><feColorMatrix values="0 0 0 0 0  0 0 0 0 0  0 0 0 0 0  0 0 0 0.9 -0.35"/></filter><linearGradient id="sky" x1="0" y1="0" x2="0" y2="1"><stop offset="0" stop-color="#4a1c15"/><stop offset="1" stop-color="#d0652f"/></linearGradient></defs>
<rect width="1200" height="800" fill="url(#sky)"/><circle cx="785.20044721663" cy="409.3115237541497" r="217.76258699595928" fill="#f4c97a" opacity="0.22"/><rect x="40" y="331" width="10" height="138" rx="5" fill="#190b07" opacity="0.9"/><rect x="62" y="278" width="10" height="244" rx="5" fill="#391610" opacity="0.9"/><rect x="84" y="315" width="10" height="171" rx="5" fill="#190b07" opacity="0.9"/><rect x="106" y="242" width="10" height="317" rx="5" fill="#190b07" opacity="0.9"/><rect x="128" y="267" width="10" height="266" rx="5" fill="#391610" opacity="0.9"/><rect x="150" y="307" width="10" height="186" rx="5" fill="#8d3a22" opacity="0.9"/><rect x="172" y="255" width="10" height="291" rx="5" fill="#8d3a22" opacity="0.9"/><rect x="194" y="304" width="10" height="192" rx="5" fill="#612417" opacity="0.9"/><rect x="216" y="309" width="10" height="181" rx="5" fill="#8d3a22" opacity="0.9"/><rect x="238" y="313" width="10" height="173" rx="5" fill="#391610" opacity="0.9"/><rect x="260" y="353" width="10" height="93" rx="5" fill="#190b07" opacity="0.9"/><rect x="282" y="375" width="10" height="51" rx="5" fill="#8d3a22" opacity="0.9"/><rect x="304" y="353" width="10" height="93" rx="5" fill="#8d3a22" opacity="0.9"/><rect x="326" y="333" width="10" height="134" rx="5" fill="#8d3a22" opacity="0.9"/><rect x="348" y="290" width="10" height="220" rx="5" fill="#391610" opacity="0.9"/><rect x="370" y="319" width="10" height="161" rx="5" fill="#8d3a22" opacity="0.9"/><rect x="392" y="221" width="10" height="359" rx="5" fill="#190b07" opacity="0.9"/><rect x="414" y="270" width="10" height="260" rx="5" fill="#612417" opacity="0.9"/><rect x="436" y="280" width="10" height="241" rx="5" fill="#190b07" opacity="0.9"/><rect x="458" y="321" width="10" height="157" rx="5" fill="#391610" opacity="0.9"/><rect x="480" y="292" width="10" height="216" rx="5" fill="#612417" opacity="0.9"/><rect x="502" y="319" width="10" height="162" rx="5" fill="#8d3a22" opacity="0.9"/><rect x="524" y="321" width="10" height="159" rx="5" fill="#190b07" opacity="0.9"/><rect x="546" y="344" width="10" height="113" rx="5" fill="#612417" opacity="0.9"/><rect x="568" y="375" width="10" height="50" rx="5" fill="#612417" opacity="0.9"/><rect x="590" y="335" width="10" height="131" rx="5" fill="#612417" opacity="0.9"/><rect x="612" y="343" width="10" height="114" rx="5" fill="#8d3a22" opacity="0.9"/><rect x="634" y="322" width="10" height="156" rx="5" fill="#8d3a22" opacity="0.9"/><rect x="656" y="297" width="10" height="205" rx="5" fill="#391610" opacity="0.9"/><rect x="678" y="291" width="10" height="217" rx="5" fill="#8d3a22" opacity="0.9"/><rect x="700" y="242" width="10" height="317" rx="5" fill="#612417" opacity="0.9"/><rect x="722" y="256" width="10" height="289" rx="5" fill="#190b07" opacity="0.9"/><rect x="744" y="279" width="10" height="242" rx="5" fill="#190b07" opacity="0.9"/><rect x="766" y="321" width="10" height="159" rx="5" fill="#391610" opacity="0.9"/><rect x="788" y="290" width="10" height="220" rx="5" fill="#8d3a22" opacity="0.9"/><rect x="810" y="314" width="10" height="172" rx="5" fill="#612417" opacity="0.9"/><rect x="832" y="340" width="10" height="121" rx="5" fill="#190b07" opacity="0.9"/><rect x="854" y="375" width="10" height="51" rx="5" fill="#612417" opacity="0.9"/><rect x="876" y="338" width="10" height="124" rx="5" fill="#190b07" opacity="0.9"/><rect x="898" y="345" width="10" height="110" rx="5" fill="#190b07" opacity="0.9"/><rect x="920" y="287" width="10" height="227" rx="5" fill="#391610" opacity="0.9"/><rect x="942" y="306" width="10" height="189" rx="5" fill="#391610" opacity="0.9"/><rect x="964" y="315" width="10" height="169" rx="5" fill="#391610" opacity="0.9"/><rect x="986" y="300" width="10" height="200" rx="5" fill="#190b07" opacity="0.9"/><rect x="1008" y="257" width="10" height="287" rx="5" fill="#8d3a22" opacity="0.9"/><rect x="1030" y="320" width="10" height="160" rx="5" fill="#612417" opacity="0.9"/><rect x="1052" y="258" width="10" height="284" rx="5" fill="#391610" opacity="0.9"/><rect x="1074" y="329" width="10" height="142" rx="5" fill="#8d3a22" opacity="0.9"/><rect x="1096" y="334" width="10" height="131" rx="5" fill="#612417" opacity="0.9"/><rect x="1118" y="356" width="10" height="87" rx="5" fill="#391610" opacity="0.9"/><rect x="1140" y="374" width="10" height="52" rx="5" fill="#8d3a22" opacity="0.9"/><rect x="1162" y="361" width="10" height="78" rx="5" fill="#190b07" opacity="0.9"/><rect width="100%" height="100%" filter="url(#grain)" opacity="0.35"/>
</svg>
