<svg xmlns="http://www.w3.org/2000/svg" viewBox="0 0 1200 800" width="1200" height="800" preserveAspectRatio="xMidYMid slice">
<defs><filter id="grain" x="0" y="0" width="100%" height="100%"><feTurbulence type="fractalNoise" baseFrequency="0.9" numOctaves="2" stitchTiles="stitch"/><feColorMatrix values="0 0 0 0 0  0 0 0 0 0  0 0 0 0 0  0 0 0 0.9 -0.35"/></filter><linearGradient id="sky" x1="0" y1="0" x2="0" y2="1"><stop offset="0" stop-color="#f6e2bb"/><stop offset="1" stop-color="#e0a85f"/></linearGradient></defs>
<rect width="1200" height="800" fill="url(#sky)"/><circle cx="440.3595559298992" cy="232.91191466152668" r="70" fill="#fff6e0"/><path d="M0 800 L0 602.4 L16 597.7 L32 593.7 L48 590.6 L64 588.6 L80 587.8 L96 588.0 L112 588.9 L128 590.2 L144 591.4 L160 592.1 L176 592.2 L192 591.2 L208 589.4 L224 586.7 L240 583.5 L256 580.0 L272 576.8 L288 574.3 L304 572.8 L320 572.5 L336 573.6 L352 575.9 L368 579.3 L384 583.3 L400 587.6 L416 591.7 L432 595.2 L448 597.8 L464 599.5 L480 600.1 L496 599.9 L512 599.1 L528 598.1 L544 597.3 L560 597.2 L576 597.8 L592 599.6 L608 602.3 L624 606.0 L640 610.3 L656 614.8 L672 619.0 L688 622.6 L704 625.2 L720 626.6 L736 626.7 L752 625.5 L768 623.2 L784 620.4 L800 617.2 L816 614.2 L832 611.8 L848 610.2 L864 609.5 L880 609.7 L896 610.6 L912 612.0 L928 613.4 L944 614.5 L960 614.8 L976 614.1 L992 612.3 L1008 609.2 L1024 605.2 L1040 600.5 L1056 595.5 L1072 590.6 L1088 586.4 L1104 583.0 L1120 580.9 L1136 579.9 L1152 580.2 L1168 581.3 L1184 583.1 L1200 585.1 L1200 800 Z" fill="#e0b273" opacity="1"/><rect x="260" y="400" width="680" height="320" fill="#c88f4b"/><polygon points="300,720 312,461 324,441 396,441 408,461 420,720" fill="#e0b273"/><rect x="336" y="419" width="48" height="24" fill="#e0b273"/><line x1="290" y1="481" x2="430" y2="481" stroke="#a0682f" stroke-width="5" stroke-linecap="round"/><line x1="290" y1="519" x2="430" y2="519" stroke="#a0682f" stroke-width="5" stroke-linecap="round"/><line x1="290" y1="557" x2="430" y2="557" stroke="#a0682f" stroke-width="5" stroke-linecap="round"/><line x1="290" y1="595" x2="430" y2="595" stroke="#a0682f" stroke-width="5" stroke-linecap="round"/><line x1="290" y1="633" x2="430" y2="633" stroke="#a0682f" stroke-width="5" stroke-linecap="round"/><line x1="290" y1="671" x2="430" y2="671" stroke="#a0682f" stroke-width="5" stroke-linecap="round"/><path d="M348 720 V591 Q360 561 372 591 V720 Z" fill="#a0682f"/><polygon points="540,720 552,462 564,442 636,442 648,462 660,720" fill="#e0b273"/><rect x="576" y="420" width="48" height="24" fill="#e0b273"/><line x1="530" y1="482" x2="670" y2="482" stroke="#a0682f" stroke-width="5" stroke-linecap="round"/><line x1="530" y1="520" x2="670" y2="520" stroke="#a0682f" stroke-width="5" stroke-linecap="round"/><line x1="530" y1="558" x2="670" y2="558" stroke="#a0682f" stroke-width="5" stroke-linecap="round"/><line x1="530" y1="596" x2="670" y2="596" stroke="#a0682f" stroke-width="5" stroke-linecap="round"/><line x1="530" y1="634" x2="670" y2="634" stroke="#a0682f" stroke-width="5" stroke-linecap="round"/><line x1="530" y1="672" x2="670" y2="672" stroke="#a0682f" stroke-width="5" stroke-linecap="round"/><path d="M588 720 V592 Q600 562 612 592 V720 Z" fill="#a0682f"/><circle cx="600" cy="402" r="3" fill="#a0682f"/><polygon points="780,720 792,469 804,449 876,449 888,469 900,720" fill="#e0b273"/><rect x="816" y="427" width="48" height="24" fill="#e0b273"/><line x1="770" y1="489" x2="910" y2="489" stroke="#a0682f" stroke-width="5" stroke-linecap="round"/><line x1="770" y1="527" x2="910" y2="527" stroke="#a0682f" stroke-width="5" stroke-linecap="round"/><line x1="770" y1="565" x2="910" y2="565" stroke="#a0682f" stroke-width="5" stroke-linecap="round"/><line x1="770" y1="603" x2="910" y2="603" stroke="#a0682f" stroke-width="5" stroke-linecap="round"/><line x1="770" y1="641" x2="910" y2="641" stroke="#a0682f" stroke-width="5" stroke-linecap="round"/><line x1="770" y1="679" x2="910" y2="679" stroke="#a0682f" stroke-width="5" stroke-linecap="round"/><path d="M828 720 V599 Q840 569 852 599 V720 Z" fill="#a0682f"/><rect x="260" y="400" width="680" height="12" fill="#e0b273"/><path d="M0 800 L0 736.5 L16 737.0 L32 737.3 L48 737.3 L64 736.8 L80 735.9 L96 734.4 L112 732.6 L128 730.6 L144 728.5 L160 726.6 L176 724.9 L192 723.8 L208 723.3 L224 723.4 L240 724.3 L256 725.7 L272 727.6 L288 729.8 L304 732.1 L320 734.3 L336 736.2 L352 737.7 L368 738.8 L384 739.3 L400 739.4 L416 739.1 L432 738.7 L448 738.3 L464 738.0 L480 738.1 L496 738.6 L512 739.6 L528 741.2 L544 743.2 L560 745.6 L576 748.1 L592 750.5 L608 752.7 L624 754.5 L640 755.7 L656 756.3 L672 756.1 L688 755.4 L704 754.1 L720 752.4 L736 750.6 L752 748.8 L768 747.2 L784 745.9 L800 745.1 L816 744.7 L832 744.8 L848 745.2 L864 745.8 L880 746.4 L896 746.9 L912 747.0 L928 746.6 L944 745.7 L960 744.2 L976 742.1 L992 739.7 L1008 737.0 L1024 734.2 L1040 731.6 L1056 729.3 L1072 727.6 L1088 726.4 L1104 725.9 L1120 726.0 L1136 726.6 L1152 727.7 L1168 729.0 L1184 730.3 L1200 731.5 L1200 800 Z" fill="#a0682f" opacity="1"/><rect width="100%" height="100%" filter="url(#grain)" opacity="0.35"/>
</svg>
