<svg xmlns="http://www.w3.org/2000/svg" viewBox="0 0 1200 800" width="1200" height="800" preserveAspectRatio="xMidYMid slice">
<defs><filter id="grain" x="0" y="0" width="100%" height="100%"><feTurbulence type="fractalNoise" baseFrequency="0.9" numOctaves="2" stitchTiles="stitch"/><feColorMatrix values="0 0 0 0 0  0 0 0 0 0  0 0 0 0 0  0 0 0 0.9 -0.35"/></filter><filter id="blur"><feGaussianBlur stdDeviation="22"/></filter></defs>
<rect width="1200" height="800" fill="#17100b"/><circle cx="612" cy="438" r="330" fill="#000" opacity="0.4" filter="url(#blur)"/><circle cx="600" cy="400" r="330" fill="#f3e8d2"/><circle cx="600" cy="400" r="292" fill="#d9c29a"/><circle cx="600" cy="400" r="256" fill="#f3e8d2"/><ellipse cx="600" cy="405" rx="194.83643730403855" ry="150.54570317966864" fill="#d9a441"/><circle cx="660" cy="528" r="5.3" fill="#f2c46d" opacity="0.85"/><circle cx="741" cy="480" r="11.9" fill="#efe6d0" opacity="0.85"/><circle cx="545" cy="402" r="3.2" fill="#f2c46d" opacity="0.85"/><circle cx="570" cy="345" r="6.9" fill="#8a2f1f" opacity="0.85"/><circle cx="469" cy="318" r="3.0" fill="#b2532b" opacity="0.85"/><circle cx="567" cy="443" r="6.2" fill="#8a2f1f" opacity="0.85"/><circle cx="735" cy="442" r="12.8" fill="#b2532b" opacity="0.85"/><circle cx="726" cy="357" r="8.5" fill="#8a2f1f" opacity="0.85"/><circle cx="694" cy="303" r="5.2" fill="#b2532b" opacity="0.85"/><circle cx="501" cy="485" r="3.8" fill="#f2c46d" opacity="0.85"/><circle cx="545" cy="413" r="3.9" fill="#f2c46d" opacity="0.85"/><circle cx="604" cy="498" r="11.0" fill="#8a2f1f" opacity="0.85"/><circle cx="766" cy="362" r="5.1" fill="#f2c46d" opacity="0.85"/><circle cx="653" cy="390" r="5.9" fill="#f2c46d" opacity="0.85"/><circle cx="678" cy="455" r="3.1" fill="#8a2f1f" opacity="0.85"/><circle cx="572" cy="519" r="10.6" fill="#b2532b" opacity="0.85"/><circle cx="746" cy="390" r="6.8" fill="#b2532b" opacity="0.85"/><circle cx="552" cy="489" r="5.7" fill="#f2c46d" opacity="0.85"/><circle cx="480" cy="361" r="3.8" fill="#f2c46d" opacity="0.85"/><circle cx="610" cy="537" r="4.8" fill="#b2532b" opacity="0.85"/><circle cx="483" cy="457" r="9.2" fill="#8a2f1f" opacity="0.85"/><circle cx="725" cy="365" r="3.9" fill="#b2532b" opacity="0.85"/><circle cx="644" cy="289" r="4.1" fill="#b2532b" opacity="0.85"/><circle cx="574" cy="344" r="4.9" fill="#efe6d0" opacity="0.85"/><circle cx="540" cy="457" r="5.0" fill="#efe6d0" opacity="0.85"/><circle cx="440" cy="455" r="3.0" fill="#b2532b" opacity="0.85"/><circle cx="719" cy="432" r="6.4" fill="#b2532b" opacity="0.85"/><circle cx="768" cy="379" r="4.5" fill="#8a2f1f" opacity="0.85"/><circle cx="627" cy="512" r="6.5" fill="#8a2f1f" opacity="0.85"/><circle cx="624" cy="516" r="3.5" fill="#8a2f1f" opacity="0.85"/><circle cx="594" cy="476" r="6.0" fill="#f2c46d" opacity="0.85"/><circle cx="540" cy="385" r="4.4" fill="#efe6d0" opacity="0.85"/><circle cx="690" cy="423" r="4.3" fill="#8a2f1f" opacity="0.85"/><circle cx="639" cy="277" r="8.4" fill="#efe6d0" opacity="0.85"/><circle cx="499" cy="312" r="11.4" fill="#8a2f1f" opacity="0.85"/><circle cx="571" cy="418" r="8.4" fill="#b2532b" opacity="0.85"/><circle cx="517" cy="495" r="6.3" fill="#f2c46d" opacity="0.85"/><circle cx="505" cy="347" r="6.5" fill="#f2c46d" opacity="0.85"/><circle cx="678" cy="460" r="9.6" fill="#b2532b" opacity="0.85"/><circle cx="639" cy="295" r="7.1" fill="#efe6d0" opacity="0.85"/><circle cx="676" cy="328" r="4.8" fill="#f2c46d" opacity="0.85"/><circle cx="521" cy="487" r="10.1" fill="#f2c46d" opacity="0.85"/><circle cx="496" cy="453" r="7.8" fill="#f2c46d" opacity="0.85"/><circle cx="676" cy="287" r="10.1" fill="#8a2f1f" opacity="0.85"/><circle cx="630" cy="440" r="3.0" fill="#8a2f1f" opacity="0.85"/><circle cx="477" cy="405" r="5.2" fill="#f2c46d" opacity="0.85"/><circle cx="594" cy="311" r="8.9" fill="#efe6d0" opacity="0.85"/><circle cx="470" cy="362" r="6.8" fill="#b2532b" opacity="0.85"/><circle cx="511" cy="332" r="8.6" fill="#efe6d0" opacity="0.85"/><circle cx="490" cy="486" r="9.4" fill="#efe6d0" opacity="0.85"/><circle cx="519" cy="300" r="5.5" fill="#efe6d0" opacity="0.85"/><circle cx="556" cy="511" r="6.1" fill="#f2c46d" opacity="0.85"/><circle cx="535" cy="442" r="8.4" fill="#f2c46d" opacity="0.85"/><circle cx="539" cy="507" r="11.0" fill="#efe6d0" opacity="0.85"/><circle cx="527" cy="419" r="7.4" fill="#f2c46d" opacity="0.85"/><circle cx="440" cy="383" r="7.0" fill="#f2c46d" opacity="0.85"/><circle cx="666" cy="519" r="6.9" fill="#b2532b" opacity="0.85"/><circle cx="603" cy="368" r="3.6" fill="#f2c46d" opacity="0.85"/><circle cx="505" cy="442" r="9.4" fill="#f2c46d" opacity="0.85"/><circle cx="523" cy="298" r="3.5" fill="#f2c46d" opacity="0.85"/><circle cx="729" cy="478" r="5.5" fill="#f2c46d" opacity="0.85"/><circle cx="588" cy="403" r="9.6" fill="#b2532b" opacity="0.85"/><circle cx="559" cy="439" r="11.8" fill="#8a2f1f" opacity="0.85"/><circle cx="619" cy="434" r="8.9" fill="#8a2f1f" opacity="0.85"/><circle cx="717" cy="441" r="6.7" fill="#b2532b" opacity="0.85"/><circle cx="675" cy="296" r="10.2" fill="#8a2f1f" opacity="0.85"/><circle cx="510" cy="351" r="9.7" fill="#f2c46d" opacity="0.85"/><circle cx="512" cy="292" r="11.2" fill="#8a2f1f" opacity="0.85"/><circle cx="743" cy="392" r="9.2" fill="#efe6d0" opacity="0.85"/><circle cx="521" cy="417" r="3.1" fill="#f2c46d" opacity="0.85"/><circle cx="647" cy="434" r="4.7" fill="#8a2f1f" opacity="0.85"/><circle cx="678" cy="490" r="9.7" fill="#f2c46d" opacity="0.85"/><circle cx="569" cy="362" r="3.5" fill="#8a2f1f" opacity="0.85"/><circle cx="607" cy="465" r="10.9" fill="#8a2f1f" opacity="0.85"/><circle cx="576" cy="324" r="10.7" fill="#f2c46d" opacity="0.85"/><circle cx="435" cy="429" r="11.8" fill="#8a2f1f" opacity="0.85"/><circle cx="554" cy="292" r="12.1" fill="#8a2f1f" opacity="0.85"/><circle cx="593" cy="457" r="12.4" fill="#efe6d0" opacity="0.85"/><circle cx="503" cy="433" r="9.7" fill="#b2532b" opacity="0.85"/><circle cx="686" cy="401" r="8.4" fill="#f2c46d" opacity="0.85"/><circle cx="714" cy="350" r="7.4" fill="#f2c46d" opacity="0.85"/><circle cx="691" cy="420" r="11.5" fill="#efe6d0" opacity="0.85"/><circle cx="655" cy="403" r="5.9" fill="#b2532b" opacity="0.85"/><circle cx="700" cy="371" r="8.5" fill="#f2c46d" opacity="0.85"/><circle cx="615" cy="419" r="8.0" fill="#f2c46d" opacity="0.85"/><circle cx="643" cy="466" r="10.9" fill="#b2532b" opacity="0.85"/><circle cx="670" cy="495" r="7.5" fill="#f2c46d" opacity="0.85"/><circle cx="646" cy="301" r="7.6" fill="#b2532b" opacity="0.85"/><circle cx="723" cy="501" r="6.4" fill="#b2532b" opacity="0.85"/><circle cx="720" cy="328" r="3.7" fill="#8a2f1f" opacity="0.85"/><circle cx="527" cy="364" r="4.7" fill="#8a2f1f" opacity="0.85"/><circle cx="460" cy="450" r="9.2" fill="#8a2f1f" opacity="0.85"/><circle cx="509" cy="373" r="7.4" fill="#f2c46d" opacity="0.85"/><circle cx="637" cy="413" r="5.3" fill="#f2c46d" opacity="0.85"/><circle cx="699" cy="322" r="8.8" fill="#efe6d0" opacity="0.85"/><circle cx="600" cy="291" r="6.8" fill="#f2c46d" opacity="0.85"/><circle cx="550" cy="476" r="10.1" fill="#f2c46d" opacity="0.85"/><circle cx="470" cy="416" r="11.7" fill="#efe6d0" opacity="0.85"/><circle cx="702" cy="326" r="9.3" fill="#b2532b" opacity="0.85"/><circle cx="509" cy="425" r="9.7" fill="#f2c46d" opacity="0.85"/><circle cx="700" cy="383" r="11.8" fill="#efe6d0" opacity="0.85"/><circle cx="650" cy="348" r="6.4" fill="#8a2f1f" opacity="0.85"/><circle cx="561" cy="305" r="3.3" fill="#efe6d0" opacity="0.85"/><circle cx="740" cy="355" r="5.4" fill="#f2c46d" opacity="0.85"/><circle cx="474" cy="388" r="3.5" fill="#b2532b" opacity="0.85"/><circle cx="594" cy="291" r="9.9" fill="#b2532b" opacity="0.85"/><circle cx="687" cy="454" r="3.8" fill="#efe6d0" opacity="0.85"/><circle cx="688" cy="301" r="5.5" fill="#8a2f1f" opacity="0.85"/><circle cx="592" cy="498" r="7.9" fill="#8a2f1f" opacity="0.85"/><circle cx="650" cy="530" r="7.5" fill="#efe6d0" opacity="0.85"/><ellipse cx="746" cy="410" rx="26" ry="9" fill="#6f8a3d" transform="rotate(2 746 410)"/><ellipse cx="727" cy="461" rx="26" ry="9" fill="#6f8a3d" transform="rotate(30 727 461)"/><ellipse cx="746" cy="402" rx="26" ry="9" fill="#6f8a3d" transform="rotate(358 746 402)"/><ellipse cx="654" cy="510" rx="26" ry="9" fill="#6f8a3d" transform="rotate(68 654 510)"/><ellipse cx="680" cy="310" rx="26" ry="9" fill="#6f8a3d" transform="rotate(303 680 310)"/><ellipse cx="512" cy="315" rx="26" ry="9" fill="#6f8a3d" transform="rotate(233 512 315)"/><ellipse cx="550" cy="299" rx="26" ry="9" fill="#6f8a3d" transform="rotate(250 550 299)"/><rect width="100%" height="100%" filter="url(#grain)" opacity="0.35"/>
</svg>
