<svg xmlns="http://www.w3.org/2000/svg" viewBox="0 0 1200 800" width="1200" height="800" preserveAspectRatio="xMidYMid slice">
<defs><filter id="grain" x="0" y="0" width="100%" height="100%"><feTurbulence type="fractalNoise" baseFrequency="0.9" numOctaves="2" stitchTiles="stitch"/><feColorMatrix values="0 0 0 0 0  0 0 0 0 0  0 0 0 0 0  0 0 0 0.9 -0.35"/></filter><linearGradient id="sky" x1="0" y1="0" x2="0" y2="1"><stop offset="0" stop-color="#e2d3a1"/><stop offset="1" stop-color="#98a45f"/></linearGradient></defs>
<rect width="1200" height="800" fill="url(#sky)"/><circle cx="551.9365881476551" cy="229.29240299854428" r="175.33785729669034" fill="#fbf1c8" opacity="0.16"/><circle cx="551.9365881476551" cy="229.29240299854428" r="73.05744054028764" fill="#fbf1c8"/><path d="M0 800 L0 481.6 L16 477.9 L32 473.1 L48 467.3 L64 460.6 L80 453.3 L96 445.6 L112 437.6 L128 429.6 L144 421.7 L160 414.1 L176 407.1 L192 400.8 L208 395.3 L224 390.7 L240 387.1 L256 384.7 L272 383.2 L288 382.9 L304 383.6 L320 385.2 L336 387.7 L352 390.9 L368 394.7 L384 399.0 L400 403.7 L416 408.5 L432 413.4 L448 418.2 L464 422.9 L480 427.3 L496 431.4 L512 435.0 L528 438.3 L544 441.1 L560 443.5 L576 445.5 L592 447.2 L608 448.5 L624 449.6 L640 450.5 L656 451.2 L672 451.9 L688 452.5 L704 453.0 L720 453.6 L736 454.2 L752 454.7 L768 455.2 L784 455.6 L800 455.9 L816 456.0 L832 455.9 L848 455.4 L864 454.5 L880 453.1 L896 451.3 L912 448.8 L928 445.9 L944 442.3 L960 438.2 L976 433.6 L992 428.5 L1008 423.1 L1024 417.5 L1040 411.7 L1056 406.0 L1072 400.5 L1088 395.3 L1104 390.6 L1120 386.5 L1136 383.3 L1152 380.9 L1168 379.6 L1184 379.4 L1200 380.3 L1200 800 Z" fill="#6b8a4c" opacity="1"/><path d="M0 800 L0 495.6 L16 494.6 L32 494.6 L48 495.5 L64 497.6 L80 500.8 L96 505.0 L112 510.2 L128 516.2 L144 522.7 L160 529.5 L176 536.2 L192 542.6 L208 548.2 L224 552.8 L240 555.9 L256 557.5 L272 557.3 L288 555.2 L304 551.3 L320 545.6 L336 538.5 L352 530.2 L368 521.1 L384 511.6 L400 502.3 L416 493.7 L432 486.2 L448 480.3 L464 476.3 L480 474.4 L496 474.8 L512 477.6 L528 482.6 L544 489.6 L560 498.2 L576 508.0 L592 518.5 L608 529.1 L624 539.3 L640 548.5 L656 556.3 L672 562.2 L688 566.0 L704 567.4 L720 566.3 L736 562.9 L752 557.3 L768 549.9 L784 541.1 L800 531.3 L816 521.1 L832 511.1 L848 501.6 L864 493.3 L880 486.5 L896 481.6 L912 478.7 L928 477.9 L944 479.2 L960 482.4 L976 487.4 L992 493.8 L1008 501.2 L1024 509.2 L1040 517.4 L1056 525.4 L1072 532.8 L1088 539.2 L1104 544.4 L1120 548.2 L1136 550.6 L1152 551.4 L1168 550.9 L1184 549.0 L1200 546.1 L1200 800 Z" fill="#356347" opacity="1"/><g fill="#08130e" transform="translate(299 660) scale(1.39)"><path d="M-4 0 L4 0 L3 -62 Q12 -92 46 -102 L44 -97 Q14 -88 7 -62 Q-6 -92 -44 -98 L-42 -104 Q-9 -94 -3 -62 Z"/><ellipse cx="0" cy="-106" rx="74" ry="13"/><ellipse cx="-38" cy="-99" rx="42" ry="9"/><ellipse cx="42" cy="-99" rx="40" ry="9"/></g><path d="M0 800 L0 573.5 L16 579.2 L32 585.5 L48 591.5 L64 596.5 L80 599.9 L96 601.5 L112 601.4 L128 600.0 L144 598.0 L160 596.2 L176 595.5 L192 596.3 L208 598.9 L224 603.3 L240 609.1 L256 615.5 L272 621.8 L288 627.1 L304 630.8 L320 632.3 L336 631.8 L352 629.5 L368 626.0 L384 622.1 L400 618.6 L416 616.3 L432 615.5 L448 616.3 L464 618.7 L480 621.9 L496 625.3 L512 628.1 L528 629.4 L544 628.9 L560 626.2 L576 621.6 L592 615.6 L608 609.0 L624 602.4 L640 596.9 L656 592.9 L672 590.8 L688 590.5 L704 591.7 L720 593.7 L736 595.7 L752 596.9 L768 596.7 L784 594.7 L800 591.0 L816 585.9 L832 580.0 L848 574.1 L864 569.2 L880 565.9 L896 564.5 L912 565.4 L928 568.1 L944 572.2 L960 576.8 L976 581.2 L992 584.6 L1008 586.5 L1024 586.6 L1040 585.2 L1056 582.8 L1072 580.0 L1088 577.6 L1104 576.5 L1120 577.2 L1136 579.9 L1152 584.5 L1168 590.6 L1184 597.5 L1200 604.3 L1200 800 Z" fill="#1d4333" opacity="1"/><path d="M0 800 L0 703.7 L16 702.3 L32 701.0 L48 700.0 L64 699.1 L80 698.5 L96 698.2 L112 698.0 L128 698.0 L144 698.1 L160 698.2 L176 698.2 L192 698.0 L208 697.5 L224 696.7 L240 695.6 L256 694.0 L272 692.0 L288 689.7 L304 687.0 L320 684.1 L336 681.0 L352 677.9 L368 674.9 L384 672.1 L400 669.6 L416 667.5 L432 666.0 L448 665.1 L464 664.8 L480 665.2 L496 666.2 L512 667.8 L528 670.0 L544 672.6 L560 675.5 L576 678.6 L592 681.7 L608 684.9 L624 687.8 L640 690.5 L656 692.9 L672 694.9 L688 696.5 L704 697.6 L720 698.4 L736 698.8 L752 699.0 L768 698.9 L784 698.8 L800 698.7 L816 698.6 L832 698.7 L848 699.0 L864 699.5 L880 700.2 L896 701.2 L912 702.4 L928 703.7 L944 705.1 L960 706.4 L976 707.6 L992 708.5 L1008 709.0 L1024 709.2 L1040 708.8 L1056 707.9 L1072 706.4 L1088 704.4 L1104 701.9 L1120 698.9 L1136 695.5 L1152 691.9 L1168 688.2 L1184 684.5 L1200 680.9 L1200 800 Z" fill="#0d2119" opacity="1"/><rect width="100%" height="100%" filter="url(#grain)" opacity="0.35"/>
</svg>
