<svg xmlns="http://www.w3.org/2000/svg" viewBox="0 0 1200 800" width="1200" height="800" preserveAspectRatio="xMidYMid slice">
<defs><filter id="grain" x="0" y="0" width="100%" height="100%"><feTurbulence type="fractalNoise" baseFrequency="0.9" numOctaves="2" stitchTiles="stitch"/><feColorMatrix values="0 0 0 0 0  0 0 0 0 0  0 0 0 0 0  0 0 0 0.9 -0.35"/></filter><linearGradient id="sky" x1="0" y1="0" x2="0" y2="1"><stop offset="0" stop-color="#f6e2bb"/><stop offset="1" stop-color="#e0a85f"/></linearGradient></defs>
<rect width="1200" height="800" fill="url(#sky)"/><circle cx="449.81761548668146" cy="252.00352377723902" r="168.2108560167253" fill="#fff6e0" opacity="0.16"/><circle cx="449.81761548668146" cy="252.00352377723902" r="70.08785667363554" fill="#fff6e0"/><path d="M0 800 L0 448.3 L16 435.9 L32 423.6 L48 412.1 L64 402.3 L80 394.7 L96 389.6 L112 387.3 L128 387.4 L144 389.6 L160 393.3 L176 397.9 L192 402.7 L208 407.1 L224 410.9 L240 413.7 L256 415.6 L272 416.8 L288 417.6 L304 418.6 L320 420.3 L336 423.1 L352 427.3 L368 433.0 L384 440.1 L400 448.4 L416 457.1 L432 465.7 L448 473.3 L464 479.3 L480 482.9 L496 483.6 L512 481.2 L528 475.8 L544 467.7 L560 457.4 L576 445.6 L592 433.4 L608 421.5 L624 410.9 L640 402.1 L656 395.6 L672 391.7 L688 390.2 L704 390.9 L720 393.3 L736 396.8 L752 400.7 L768 404.5 L784 407.7 L800 410.1 L816 411.6 L832 412.4 L848 412.9 L864 413.4 L880 414.5 L896 416.8 L912 420.5 L928 425.8 L944 432.8 L960 441.2 L976 450.4 L992 459.9 L1008 468.8 L1024 476.4 L1040 481.8 L1056 484.6 L1072 484.3 L1088 480.8 L1104 474.4 L1120 465.5 L1136 454.8 L1152 443.0 L1168 431.1 L1184 420.0 L1200 410.3 L1200 800 Z" fill="#e0b273" opacity="1"/><path d="M0 800 L0 521.4 L16 517.5 L32 512.8 L48 507.4 L64 501.5 L80 495.6 L96 490.2 L112 485.9 L128 483.4 L144 483.1 L160 485.4 L176 490.5 L192 498.1 L208 507.9 L224 519.1 L240 531.0 L256 542.5 L272 552.6 L288 560.6 L304 565.7 L320 567.5 L336 565.8 L352 560.9 L368 553.2 L384 543.3 L400 532.3 L416 521.0 L432 510.4 L448 501.2 L464 494.0 L480 489.2 L496 486.8 L512 486.8 L528 488.7 L544 492.0 L560 496.3 L576 500.9 L592 505.4 L608 509.6 L624 513.2 L640 516.3 L656 519.1 L672 521.7 L688 524.5 L704 527.7 L720 531.4 L736 535.6 L752 540.1 L768 544.7 L784 548.7 L800 551.8 L816 553.3 L832 552.7 L848 549.8 L864 544.5 L880 536.9 L896 527.3 L912 516.5 L928 505.2 L944 494.4 L960 484.9 L976 477.8 L992 473.5 L1008 472.6 L1024 475.1 L1040 480.9 L1056 489.5 L1072 500.0 L1088 511.7 L1104 523.5 L1120 534.5 L1136 543.8 L1152 550.9 L1168 555.4 L1184 557.2 L1200 556.4 L1200 800 Z" fill="#c88f4b" opacity="1"/><g fill="#3a2312" transform="translate(645 660) scale(1.35)"><path d="M-4 0 L4 0 L3 -62 Q12 -92 46 -102 L44 -97 Q14 -88 7 -62 Q-6 -92 -44 -98 L-42 -104 Q-9 -94 -3 -62 Z"/><ellipse cx="0" cy="-106" rx="74" ry="13"/><ellipse cx="-38" cy="-99" rx="42" ry="9"/><ellipse cx="42" cy="-99" rx="40" ry="9"/></g><path d="M0 800 L0 618.8 L16 619.4 L32 618.8 L48 617.0 L64 613.7 L80 609.2 L96 603.6 L112 597.5 L128 591.2 L144 585.4 L160 580.3 L176 576.5 L192 574.1 L208 573.2 L224 573.6 L240 575.1 L256 577.3 L272 579.8 L288 582.1 L304 583.8 L320 584.5 L336 584.2 L352 582.8 L368 580.6 L384 577.8 L400 575.0 L416 572.4 L432 570.7 L448 570.1 L464 570.9 L480 573.3 L496 577.1 L512 582.1 L528 587.9 L544 594.0 L560 600.0 L576 605.4 L592 609.8 L608 612.9 L624 614.6 L640 615.1 L656 614.5 L672 613.3 L688 611.8 L704 610.5 L720 609.9 L736 610.1 L752 611.5 L768 614.0 L784 617.4 L800 621.4 L816 625.7 L832 629.7 L848 632.9 L864 635.0 L880 635.7 L896 634.8 L912 632.3 L928 628.5 L944 623.8 L960 618.4 L976 613.1 L992 608.1 L1008 604.0 L1024 600.9 L1040 599.1 L1056 598.4 L1072 598.7 L1088 599.7 L1104 600.8 L1120 601.7 L1136 601.9 L1152 601.1 L1168 599.1 L1184 595.9 L1200 591.6 L1200 800 Z" fill="#a0682f" opacity="1"/><path d="M0 800 L0 695.8 L16 692.8 L32 689.8 L48 686.9 L64 684.2 L80 681.7 L96 679.5 L112 677.6 L128 676.2 L144 675.1 L160 674.4 L176 674.0 L192 674.0 L208 674.3 L224 674.8 L240 675.4 L256 676.2 L272 676.9 L288 677.7 L304 678.3 L320 678.8 L336 679.1 L352 679.2 L368 679.1 L384 678.8 L400 678.3 L416 677.6 L432 676.9 L448 676.1 L464 675.3 L480 674.6 L496 674.0 L512 673.7 L528 673.7 L544 673.9 L560 674.5 L576 675.6 L592 677.0 L608 678.7 L624 680.9 L640 683.3 L656 686.0 L672 688.9 L688 691.9 L704 694.9 L720 697.9 L736 700.8 L752 703.4 L768 705.8 L784 707.8 L800 709.4 L816 710.6 L832 711.4 L848 711.7 L864 711.7 L880 711.2 L896 710.4 L912 709.4 L928 708.1 L944 706.7 L960 705.2 L976 703.8 L992 702.4 L1008 701.1 L1024 700.0 L1040 699.1 L1056 698.4 L1072 698.0 L1088 697.8 L1104 697.7 L1120 697.8 L1136 698.0 L1152 698.3 L1168 698.5 L1184 698.7 L1200 698.7 L1200 800 Z" fill="#6e4220" opacity="1"/><rect width="100%" height="100%" filter="url(#grain)" opacity="0.35"/>
</svg>
