<svg xmlns="http://www.w3.org/2000/svg" viewBox="0 0 1200 800" width="1200" height="800" preserveAspectRatio="xMidYMid slice">
<defs><filter id="grain" x="0" y="0" width="100%" height="100%"><feTurbulence type="fractalNoise" baseFrequency="0.9" numOctaves="2" stitchTiles="stitch"/><feColorMatrix values="0 0 0 0 0  0 0 0 0 0  0 0 0 0 0  0 0 0 0.9 -0.35"/></filter><linearGradient id="sky" x1="0" y1="0" x2="0" y2="1"><stop offset="0" stop-color="#17110d"/><stop offset="1" stop-color="#53301d"/></linearGradient></defs>
<rect width="1200" height="800" fill="url(#sky)"/><circle cx="784.0182334184647" cy="358.2940386608243" r="210.63531243242323" fill="#d9b055" opacity="0.22"/><rect x="40" y="341" width="10" height="119" rx="5" fill="#1d120c" opacity="0.9"/><rect x="62" y="366" width="10" height="68" rx="5" fill="#2c1b12" opacity="0.9"/><rect x="84" y="357" width="10" height="86" rx="5" fill="#0d0705" opacity="0.9"/><rect x="106" y="348" width="10" height="103" rx="5" fill="#2c1b12" opacity="0.9"/><rect x="128" y="309" width="10" height="181" rx="5" fill="#1d120c" opacity="0.9"/><rect x="150" y="306" width="10" height="188" rx="5" fill="#2c1b12" opacity="0.9"/><rect x="172" y="308" width="10" height="185" rx="5" fill="#1d120c" opacity="0.9"/><rect x="194" y="247" width="10" height="307" rx="5" fill="#3e271a" opacity="0.9"/><rect x="216" y="293" width="10" height="213" rx="5" fill="#3e271a" opacity="0.9"/><rect x="238" y="277" width="10" height="245" rx="5" fill="#1d120c" opacity="0.9"/><rect x="260" y="295" width="10" height="209" rx="5" fill="#0d0705" opacity="0.9"/><rect x="282" y="322" width="10" height="157" rx="5" fill="#3e271a" opacity="0.9"/><rect x="304" y="289" width="10" height="221" rx="5" fill="#1d120c" opacity="0.9"/><rect x="326" y="341" width="10" height="118" rx="5" fill="#3e271a" opacity="0.9"/><rect x="348" y="365" width="10" height="70" rx="5" fill="#2c1b12" opacity="0.9"/><rect x="370" y="364" width="10" height="73" rx="5" fill="#2c1b12" opacity="0.9"/><rect x="392" y="332" width="10" height="136" rx="5" fill="#2c1b12" opacity="0.9"/><rect x="414" y="284" width="10" height="231" rx="5" fill="#2c1b12" opacity="0.9"/><rect x="436" y="278" width="10" height="245" rx="5" fill="#2c1b12" opacity="0.9"/><rect x="458" y="251" width="10" height="298" rx="5" fill="#2c1b12" opacity="0.9"/><rect x="480" y="251" width="10" height="297" rx="5" fill="#2c1b12" opacity="0.9"/><rect x="502" y="234" width="10" height="331" rx="5" fill="#2c1b12" opacity="0.9"/><rect x="524" y="238" width="10" height="324" rx="5" fill="#3e271a" opacity="0.9"/><rect x="546" y="303" width="10" height="193" rx="5" fill="#2c1b12" opacity="0.9"/><rect x="568" y="300" width="10" height="200" rx="5" fill="#0d0705" opacity="0.9"/><rect x="590" y="282" width="10" height="237" rx="5" fill="#2c1b12" opacity="0.9"/><rect x="612" y="343" width="10" height="114" rx="5" fill="#1d120c" opacity="0.9"/><rect x="634" y="358" width="10" height="83" rx="5" fill="#2c1b12" opacity="0.9"/><rect x="656" y="362" width="10" height="75" rx="5" fill="#2c1b12" opacity="0.9"/><rect x="678" y="348" width="10" height="103" rx="5" fill="#0d0705" opacity="0.9"/><rect x="700" y="302" width="10" height="197" rx="5" fill="#0d0705" opacity="0.9"/><rect x="722" y="316" width="10" height="168" rx="5" fill="#1d120c" opacity="0.9"/><rect x="744" y="276" width="10" height="248" rx="5" fill="#2c1b12" opacity="0.9"/><rect x="766" y="282" width="10" height="236" rx="5" fill="#0d0705" opacity="0.9"/><rect x="788" y="231" width="10" height="337" rx="5" fill="#0d0705" opacity="0.9"/><rect x="810" y="233" width="10" height="334" rx="5" fill="#3e271a" opacity="0.9"/><rect x="832" y="258" width="10" height="284" rx="5" fill="#3e271a" opacity="0.9"/><rect x="854" y="267" width="10" height="266" rx="5" fill="#3e271a" opacity="0.9"/><rect x="876" y="331" width="10" height="138" rx="5" fill="#2c1b12" opacity="0.9"/><rect x="898" y="336" width="10" height="128" rx="5" fill="#0d0705" opacity="0.9"/><rect x="920" y="362" width="10" height="76" rx="5" fill="#2c1b12" opacity="0.9"/><rect x="942" y="358" width="10" height="85" rx="5" fill="#1d120c" opacity="0.9"/><rect x="964" y="338" width="10" height="125" rx="5" fill="#0d0705" opacity="0.9"/><rect x="986" y="341" width="10" height="118" rx="5" fill="#0d0705" opacity="0.9"/><rect x="1008" y="319" width="10" height="162" rx="5" fill="#3e271a" opacity="0.9"/><rect x="1030" y="259" width="10" height="282" rx="5" fill="#3e271a" opacity="0.9"/><rect x="1052" y="274" width="10" height="252" rx="5" fill="#2c1b12" opacity="0.9"/><rect x="1074" y="234" width="10" height="332" rx="5" fill="#0d0705" opacity="0.9"/><rect x="1096" y="286" width="10" height="227" rx="5" fill="#0d0705" opacity="0.9"/><rect x="1118" y="236" width="10" height="327" rx="5" fill="#0d0705" opacity="0.9"/><rect x="1140" y="319" width="10" height="161" rx="5" fill="#0d0705" opacity="0.9"/><rect x="1162" y="294" width="10" height="212" rx="5" fill="#3e271a" opacity="0.9"/><rect width="100%" height="100%" filter="url(#grain)" opacity="0.35"/>
</svg>
