<svg xmlns="http://www.w3.org/2000/svg" viewBox="0 0 1200 800" width="1200" height="800" preserveAspectRatio="xMidYMid slice">
<defs><filter id="grain" x="0" y="0" width="100%" height="100%"><feTurbulence type="fractalNoise" baseFrequency="0.9" numOctaves="2" stitchTiles="stitch"/><feColorMatrix values="0 0 0 0 0  0 0 0 0 0  0 0 0 0 0  0 0 0 0.9 -0.35"/></filter><linearGradient id="sky" x1="0" y1="0" x2="0" y2="1"><stop offset="0" stop-color="#f6e2bb"/><stop offset="1" stop-color="#e0a85f"/></linearGradient></defs>
<rect width="1200" height="800" fill="url(#sky)"/><circle cx="846.1019236594439" cy="216.04801328852773" r="70" fill="#fff6e0"/><path d="M0 800 L0 575.0 L16 573.7 L32 573.7 L48 575.1 L64 577.8 L80 581.6 L96 586.2 L112 591.4 L128 596.8 L144 602.2 L160 607.3 L176 611.8 L192 615.5 L208 618.3 L224 620.0 L240 620.6 L256 620.2 L272 618.9 L288 616.8 L304 614.0 L320 610.8 L336 607.4 L352 603.8 L368 600.4 L384 597.2 L400 594.4 L416 592.0 L432 590.1 L448 588.7 L464 587.7 L480 587.3 L496 587.2 L512 587.5 L528 588.1 L544 588.9 L560 590.0 L576 591.3 L592 592.7 L608 594.4 L624 596.2 L640 598.2 L656 600.3 L672 602.6 L688 604.9 L704 607.3 L720 609.6 L736 611.8 L752 613.7 L768 615.2 L784 616.2 L800 616.5 L816 616.2 L832 615.0 L848 613.1 L864 610.4 L880 607.0 L896 603.0 L912 598.6 L928 594.0 L944 589.5 L960 585.3 L976 581.6 L992 578.7 L1008 576.8 L1024 576.0 L1040 576.5 L1056 578.2 L1072 581.2 L1088 585.3 L1104 590.3 L1120 595.9 L1136 601.9 L1152 608.0 L1168 613.7 L1184 618.8 L1200 623.0 L1200 800 Z" fill="#e0b273" opacity="1"/><rect x="260" y="400" width="680" height="320" fill="#c88f4b"/><polygon points="300,720 312,482 324,462 396,462 408,482 420,720" fill="#e0b273"/><rect x="336" y="440" width="48" height="24" fill="#e0b273"/><line x1="290" y1="502" x2="430" y2="502" stroke="#a0682f" stroke-width="5" stroke-linecap="round"/><line x1="290" y1="540" x2="430" y2="540" stroke="#a0682f" stroke-width="5" stroke-linecap="round"/><line x1="290" y1="578" x2="430" y2="578" stroke="#a0682f" stroke-width="5" stroke-linecap="round"/><line x1="290" y1="616" x2="430" y2="616" stroke="#a0682f" stroke-width="5" stroke-linecap="round"/><line x1="290" y1="654" x2="430" y2="654" stroke="#a0682f" stroke-width="5" stroke-linecap="round"/><line x1="290" y1="692" x2="430" y2="692" stroke="#a0682f" stroke-width="5" stroke-linecap="round"/><path d="M348 720 V612 Q360 582 372 612 V720 Z" fill="#a0682f"/><polygon points="540,720 552,457 564,437 636,437 648,457 660,720" fill="#e0b273"/><rect x="576" y="415" width="48" height="24" fill="#e0b273"/><line x1="530" y1="477" x2="670" y2="477" stroke="#a0682f" stroke-width="5" stroke-linecap="round"/><line x1="530" y1="515" x2="670" y2="515" stroke="#a0682f" stroke-width="5" stroke-linecap="round"/><line x1="530" y1="553" x2="670" y2="553" stroke="#a0682f" stroke-width="5" stroke-linecap="round"/><line x1="530" y1="591" x2="670" y2="591" stroke="#a0682f" stroke-width="5" stroke-linecap="round"/><line x1="530" y1="629" x2="670" y2="629" stroke="#a0682f" stroke-width="5" stroke-linecap="round"/><line x1="530" y1="667" x2="670" y2="667" stroke="#a0682f" stroke-width="5" stroke-linecap="round"/><path d="M588 720 V587 Q600 557 612 587 V720 Z" fill="#a0682f"/><circle cx="600" cy="397" r="3" fill="#a0682f"/><polygon points="780,720 792,461 804,441 876,441 888,461 900,720" fill="#e0b273"/><rect x="816" y="419" width="48" height="24" fill="#e0b273"/><line x1="770" y1="481" x2="910" y2="481" stroke="#a0682f" stroke-width="5" stroke-linecap="round"/><line x1="770" y1="519" x2="910" y2="519" stroke="#a0682f" stroke-width="5" stroke-linecap="round"/><line x1="770" y1="557" x2="910" y2="557" stroke="#a0682f" stroke-width="5" stroke-linecap="round"/><line x1="770" y1="595" x2="910" y2="595" stroke="#a0682f" stroke-width="5" stroke-linecap="round"/><line x1="770" y1="633" x2="910" y2="633" stroke="#a0682f" stroke-width="5" stroke-linecap="round"/><line x1="770" y1="671" x2="910" y2="671" stroke="#a0682f" stroke-width="5" stroke-linecap="round"/><path d="M828 720 V591 Q840 561 852 591 V720 Z" fill="#a0682f"/><rect x="260" y="400" width="680" height="12" fill="#e0b273"/><path d="M0 800 L0 729.1 L16 729.1 L32 729.6 L48 730.4 L64 731.4 L80 732.4 L96 733.2 L112 733.7 L128 733.7 L144 733.4 L160 732.6 L176 731.4 L192 729.9 L208 728.3 L224 726.7 L240 725.3 L256 724.3 L272 723.8 L288 723.9 L304 724.5 L320 725.7 L336 727.4 L352 729.3 L368 731.5 L384 733.6 L400 735.5 L416 737.2 L432 738.4 L448 739.1 L464 739.3 L480 739.1 L496 738.6 L512 737.9 L528 737.3 L544 736.7 L560 736.5 L576 736.7 L592 737.4 L608 738.6 L624 740.3 L640 742.3 L656 744.6 L672 747.0 L688 749.2 L704 751.2 L720 752.8 L736 753.8 L752 754.3 L768 754.2 L784 753.6 L800 752.7 L816 751.4 L832 750.1 L848 748.9 L864 748.0 L880 747.4 L896 747.2 L912 747.5 L928 748.2 L944 749.2 L960 750.5 L976 751.7 L992 752.8 L1008 753.7 L1024 754.1 L1040 753.9 L1056 753.2 L1072 752.0 L1088 750.2 L1104 748.1 L1120 745.8 L1136 743.4 L1152 741.2 L1168 739.3 L1184 737.7 L1200 736.7 L1200 800 Z" fill="#a0682f" opacity="1"/><rect width="100%" height="100%" filter="url(#grain)" opacity="0.35"/>
</svg>
