<svg xmlns="http://www.w3.org/2000/svg" viewBox="0 0 1200 800" width="1200" height="800" preserveAspectRatio="xMidYMid slice">
<defs><filter id="grain" x="0" y="0" width="100%" height="100%"><feTurbulence type="fractalNoise" baseFrequency="0.9" numOctaves="2" stitchTiles="stitch"/><feColorMatrix values="0 0 0 0 0  0 0 0 0 0  0 0 0 0 0  0 0 0 0.9 -0.35"/></filter><pattern id="weave" width="6" height="6" patternUnits="userSpaceOnUse"><path d="M0 0H6" stroke="#000" stroke-opacity="0.14"/><path d="M0 3H6" stroke="#fff" stroke-opacity="0.07"/></pattern></defs>
<rect width="1200" height="800" fill="#0d1a30"/><rect x="0" y="0" width="133" height="800" fill="#c9a24d"/><rect x="6" y="29" width="121" height="6" fill="#233f6e"/><rect x="6" y="93" width="121" height="6" fill="#233f6e"/><rect x="6" y="157" width="121" height="6" fill="#233f6e"/><rect x="6" y="221" width="121" height="6" fill="#233f6e"/><rect x="6" y="285" width="121" height="6" fill="#233f6e"/><rect x="6" y="349" width="121" height="6" fill="#233f6e"/><rect x="6" y="413" width="121" height="6" fill="#233f6e"/><rect x="6" y="477" width="121" height="6" fill="#233f6e"/><rect x="6" y="541" width="121" height="6" fill="#233f6e"/><rect x="6" y="605" width="121" height="6" fill="#233f6e"/><rect x="6" y="669" width="121" height="6" fill="#233f6e"/><rect x="6" y="733" width="121" height="6" fill="#233f6e"/><rect x="6" y="797" width="121" height="6" fill="#233f6e"/><rect x="0" y="0" width="3" height="800" fill="#0d1a30" opacity="0.6"/><rect x="133" y="0" width="78" height="800" fill="#0d1a30"/><circle cx="172" cy="23" r="9.384" fill="#3d5a8c"/><circle cx="172" cy="69" r="9.384" fill="#3d5a8c"/><circle cx="172" cy="115" r="9.384" fill="#3d5a8c"/><circle cx="172" cy="161" r="9.384" fill="#3d5a8c"/><circle cx="172" cy="207" r="9.384" fill="#3d5a8c"/><circle cx="172" cy="253" r="9.384" fill="#3d5a8c"/><circle cx="172" cy="299" r="9.384" fill="#3d5a8c"/><circle cx="172" cy="345" r="9.384" fill="#3d5a8c"/><circle cx="172" cy="391" r="9.384" fill="#3d5a8c"/><circle cx="172" cy="437" r="9.384" fill="#3d5a8c"/><circle cx="172" cy="483" r="9.384" fill="#3d5a8c"/><circle cx="172" cy="529" r="9.384" fill="#3d5a8c"/><circle cx="172" cy="575" r="9.384" fill="#3d5a8c"/><circle cx="172" cy="621" r="9.384" fill="#3d5a8c"/><circle cx="172" cy="667" r="9.384" fill="#3d5a8c"/><circle cx="172" cy="713" r="9.384" fill="#3d5a8c"/><circle cx="172" cy="759" r="9.384" fill="#3d5a8c"/><circle cx="172" cy="805" r="9.384" fill="#3d5a8c"/><rect x="133" y="0" width="3" height="800" fill="#0d1a30" opacity="0.6"/><rect x="211" y="0" width="132" height="800" fill="#ebdfc8"/><rect x="217" y="23" width="120" height="6" fill="#0d1a30"/><rect x="217" y="75" width="120" height="6" fill="#0d1a30"/><rect x="217" y="127" width="120" height="6" fill="#0d1a30"/><rect x="217" y="179" width="120" height="6" fill="#0d1a30"/><rect x="217" y="231" width="120" height="6" fill="#0d1a30"/><rect x="217" y="283" width="120" height="6" fill="#0d1a30"/><rect x="217" y="335" width="120" height="6" fill="#0d1a30"/><rect x="217" y="387" width="120" height="6" fill="#0d1a30"/><rect x="217" y="439" width="120" height="6" fill="#0d1a30"/><rect x="217" y="491" width="120" height="6" fill="#0d1a30"/><rect x="217" y="543" width="120" height="6" fill="#0d1a30"/><rect x="217" y="595" width="120" height="6" fill="#0d1a30"/><rect x="217" y="647" width="120" height="6" fill="#0d1a30"/><rect x="217" y="699" width="120" height="6" fill="#0d1a30"/><rect x="217" y="751" width="120" height="6" fill="#0d1a30"/><rect x="217" y="803" width="120" height="6" fill="#0d1a30"/><rect x="211" y="0" width="3" height="800" fill="#0d1a30" opacity="0.6"/><rect x="343" y="0" width="121" height="800" fill="#233f6e"/><circle cx="403.5" cy="29" r="11.832" fill="#0d1a30"/><circle cx="403.5" cy="87" r="11.832" fill="#0d1a30"/><circle cx="403.5" cy="145" r="11.832" fill="#0d1a30"/><circle cx="403.5" cy="203" r="11.832" fill="#0d1a30"/><circle cx="403.5" cy="261" r="11.832" fill="#0d1a30"/><circle cx="403.5" cy="319" r="11.832" fill="#0d1a30"/><circle cx="403.5" cy="377" r="11.832" fill="#0d1a30"/><circle cx="403.5" cy="435" r="11.832" fill="#0d1a30"/><circle cx="403.5" cy="493" r="11.832" fill="#0d1a30"/><circle cx="403.5" cy="551" r="11.832" fill="#0d1a30"/><circle cx="403.5" cy="609" r="11.832" fill="#0d1a30"/><circle cx="403.5" cy="667" r="11.832" fill="#0d1a30"/><circle cx="403.5" cy="725" r="11.832" fill="#0d1a30"/><circle cx="403.5" cy="783" r="11.832" fill="#0d1a30"/><rect x="343" y="0" width="3" height="800" fill="#0d1a30" opacity="0.6"/><rect x="464" y="0" width="147" height="800" fill="#0d1a30"/><path d="M470 57 L537.5 6 L605 57" fill="none" stroke="#ebdfc8" stroke-width="6"/><path d="M470 114 L537.5 63 L605 114" fill="none" stroke="#ebdfc8" stroke-width="6"/><path d="M470 171 L537.5 120 L605 171" fill="none" stroke="#ebdfc8" stroke-width="6"/><path d="M470 228 L537.5 177 L605 228" fill="none" stroke="#ebdfc8" stroke-width="6"/><path d="M470 285 L537.5 234 L605 285" fill="none" stroke="#ebdfc8" stroke-width="6"/><path d="M470 342 L537.5 291 L605 342" fill="none" stroke="#ebdfc8" stroke-width="6"/><path d="M470 399 L537.5 348 L605 399" fill="none" stroke="#ebdfc8" stroke-width="6"/><path d="M470 456 L537.5 405 L605 456" fill="none" stroke="#ebdfc8" stroke-width="6"/><path d="M470 513 L537.5 462 L605 513" fill="none" stroke="#ebdfc8" stroke-width="6"/><path d="M470 570 L537.5 519 L605 570" fill="none" stroke="#ebdfc8" stroke-width="6"/><path d="M470 627 L537.5 576 L605 627" fill="none" stroke="#ebdfc8" stroke-width="6"/><path d="M470 684 L537.5 633 L605 684" fill="none" stroke="#ebdfc8" stroke-width="6"/><path d="M470 741 L537.5 690 L605 741" fill="none" stroke="#ebdfc8" stroke-width="6"/><path d="M470 798 L537.5 747 L605 798" fill="none" stroke="#ebdfc8" stroke-width="6"/><path d="M470 855 L537.5 804 L605 855" fill="none" stroke="#ebdfc8" stroke-width="6"/><rect x="464" y="0" width="3" height="800" fill="#0d1a30" opacity="0.6"/><rect x="611" y="0" width="117" height="800" fill="#233f6e"/><polygon points="669.5,7.68 685.82,24 669.5,40.32 653.18,24" fill="#16294a"/><polygon points="669.5,55.68 685.82,72 669.5,88.32 653.18,72" fill="#16294a"/><polygon points="669.5,103.68 685.82,120 669.5,136.32 653.18,120" fill="#16294a"/><polygon points="669.5,151.68 685.82,168 669.5,184.32 653.18,168" fill="#16294a"/><polygon points="669.5,199.68 685.82,216 669.5,232.32 653.18,216" fill="#16294a"/><polygon points="669.5,247.68 685.82,264 669.5,280.32 653.18,264" fill="#16294a"/><polygon points="669.5,295.68 685.82,312 669.5,328.32 653.18,312" fill="#16294a"/><polygon points="669.5,343.68 685.82,360 669.5,376.32 653.18,360" fill="#16294a"/><polygon points="669.5,391.68 685.82,408 669.5,424.32 653.18,408" fill="#16294a"/><polygon points="669.5,439.68 685.82,456 669.5,472.32 653.18,456" fill="#16294a"/><polygon points="669.5,487.68 685.82,504 669.5,520.32 653.18,504" fill="#16294a"/><polygon points="669.5,535.68 685.82,552 669.5,568.32 653.18,552" fill="#16294a"/><polygon points="669.5,583.68 685.82,600 669.5,616.32 653.18,600" fill="#16294a"/><polygon points="669.5,631.68 685.82,648 669.5,664.32 653.18,648" fill="#16294a"/><polygon points="669.5,679.68 685.82,696 669.5,712.32 653.18,696" fill="#16294a"/><polygon points="669.5,727.68 685.82,744 669.5,760.32 653.18,744" fill="#16294a"/><polygon points="669.5,775.68 685.82,792 669.5,808.32 653.18,792" fill="#16294a"/><rect x="611" y="0" width="3" height="800" fill="#0d1a30" opacity="0.6"/><rect x="728" y="0" width="117" height="800" fill="#233f6e"/><polygon points="786.5,6.559999999999999 800.44,20.5 786.5,34.44 772.56,20.5" fill="#3d5a8c"/><polygon points="786.5,47.56 800.44,61.5 786.5,75.44 772.56,61.5" fill="#3d5a8c"/><polygon points="786.5,88.56 800.44,102.5 786.5,116.44 772.56,102.5" fill="#3d5a8c"/><polygon points="786.5,129.56 800.44,143.5 786.5,157.44 772.56,143.5" fill="#3d5a8c"/><polygon points="786.5,170.56 800.44,184.5 786.5,198.44 772.56,184.5" fill="#3d5a8c"/><polygon points="786.5,211.56 800.44,225.5 786.5,239.44 772.56,225.5" fill="#3d5a8c"/><polygon points="786.5,252.56 800.44,266.5 786.5,280.44 772.56,266.5" fill="#3d5a8c"/><polygon points="786.5,293.56 800.44,307.5 786.5,321.44 772.56,307.5" fill="#3d5a8c"/><polygon points="786.5,334.56 800.44,348.5 786.5,362.44 772.56,348.5" fill="#3d5a8c"/><polygon points="786.5,375.56 800.44,389.5 786.5,403.44 772.56,389.5" fill="#3d5a8c"/><polygon points="786.5,416.56 800.44,430.5 786.5,444.44 772.56,430.5" fill="#3d5a8c"/><polygon points="786.5,457.56 800.44,471.5 786.5,485.44 772.56,471.5" fill="#3d5a8c"/><polygon points="786.5,498.56 800.44,512.5 786.5,526.44 772.56,512.5" fill="#3d5a8c"/><polygon points="786.5,539.56 800.44,553.5 786.5,567.44 772.56,553.5" fill="#3d5a8c"/><polygon points="786.5,580.56 800.44,594.5 786.5,608.44 772.56,594.5" fill="#3d5a8c"/><polygon points="786.5,621.56 800.44,635.5 786.5,649.44 772.56,635.5" fill="#3d5a8c"/><polygon points="786.5,662.56 800.44,676.5 786.5,690.44 772.56,676.5" fill="#3d5a8c"/><polygon points="786.5,703.56 800.44,717.5 786.5,731.44 772.56,717.5" fill="#3d5a8c"/><polygon points="786.5,744.56 800.44,758.5 786.5,772.44 772.56,758.5" fill="#3d5a8c"/><polygon points="786.5,785.56 800.44,799.5 786.5,813.44 772.56,799.5" fill="#3d5a8c"/><rect x="728" y="0" width="3" height="800" fill="#0d1a30" opacity="0.6"/><rect x="845" y="0" width="149" height="800" fill="#233f6e"/><rect x="851" y="27.5" width="137" height="6" fill="#ebdfc8"/><rect x="851" y="88.5" width="137" height="6" fill="#ebdfc8"/><rect x="851" y="149.5" width="137" height="6" fill="#ebdfc8"/><rect x="851" y="210.5" width="137" height="6" fill="#ebdfc8"/><rect x="851" y="271.5" width="137" height="6" fill="#ebdfc8"/><rect x="851" y="332.5" width="137" height="6" fill="#ebdfc8"/><rect x="851" y="393.5" width="137" height="6" fill="#ebdfc8"/><rect x="851" y="454.5" width="137" height="6" fill="#ebdfc8"/><rect x="851" y="515.5" width="137" height="6" fill="#ebdfc8"/><rect x="851" y="576.5" width="137" height="6" fill="#ebdfc8"/><rect x="851" y="637.5" width="137" height="6" fill="#ebdfc8"/><rect x="851" y="698.5" width="137" height="6" fill="#ebdfc8"/><rect x="851" y="759.5" width="137" height="6" fill="#ebdfc8"/><rect x="851" y="820.5" width="137" height="6" fill="#ebdfc8"/><rect x="845" y="0" width="3" height="800" fill="#0d1a30" opacity="0.6"/><rect x="994" y="0" width="90" height="800" fill="#c9a24d"/><rect x="1000" y="28" width="78" height="6" fill="#3d5a8c"/><rect x="1000" y="90" width="78" height="6" fill="#3d5a8c"/><rect x="1000" y="152" width="78" height="6" fill="#3d5a8c"/><rect x="1000" y="214" width="78" height="6" fill="#3d5a8c"/><rect x="1000" y="276" width="78" height="6" fill="#3d5a8c"/><rect x="1000" y="338" width="78" height="6" fill="#3d5a8c"/><rect x="1000" y="400" width="78" height="6" fill="#3d5a8c"/><rect x="1000" y="462" width="78" height="6" fill="#3d5a8c"/><rect x="1000" y="524" width="78" height="6" fill="#3d5a8c"/><rect x="1000" y="586" width="78" height="6" fill="#3d5a8c"/><rect x="1000" y="648" width="78" height="6" fill="#3d5a8c"/><rect x="1000" y="710" width="78" height="6" fill="#3d5a8c"/><rect x="1000" y="772" width="78" height="6" fill="#3d5a8c"/><rect x="994" y="0" width="3" height="800" fill="#0d1a30" opacity="0.6"/><rect x="1084" y="0" width="150" height="800" fill="#16294a"/><polygon points="1159,9.759999999999998 1179.74,30.5 1159,51.24 1138.26,30.5" fill="#3d5a8c"/><polygon points="1159,70.75999999999999 1179.74,91.5 1159,112.24000000000001 1138.26,91.5" fill="#3d5a8c"/><polygon points="1159,131.76 1179.74,152.5 1159,173.24 1138.26,152.5" fill="#3d5a8c"/><polygon points="1159,192.76 1179.74,213.5 1159,234.24 1138.26,213.5" fill="#3d5a8c"/><polygon points="1159,253.76 1179.74,274.5 1159,295.24 1138.26,274.5" fill="#3d5a8c"/><polygon points="1159,314.76 1179.74,335.5 1159,356.24 1138.26,335.5" fill="#3d5a8c"/><polygon points="1159,375.76 1179.74,396.5 1159,417.24 1138.26,396.5" fill="#3d5a8c"/><polygon points="1159,436.76 1179.74,457.5 1159,478.24 1138.26,457.5" fill="#3d5a8c"/><polygon points="1159,497.76 1179.74,518.5 1159,539.24 1138.26,518.5" fill="#3d5a8c"/><polygon points="1159,558.76 1179.74,579.5 1159,600.24 1138.26,579.5" fill="#3d5a8c"/><polygon points="1159,619.76 1179.74,640.5 1159,661.24 1138.26,640.5" fill="#3d5a8c"/><polygon points="1159,680.76 1179.74,701.5 1159,722.24 1138.26,701.5" fill="#3d5a8c"/><polygon points="1159,741.76 1179.74,762.5 1159,783.24 1138.26,762.5" fill="#3d5a8c"/><polygon points="1159,802.76 1179.74,823.5 1159,844.24 1138.26,823.5" fill="#3d5a8c"/><rect x="1084" y="0" width="3" height="800" fill="#0d1a30" opacity="0.6"/><rect width="1200" height="800" fill="url(#weave)"/><rect width="100%" height="100%" filter="url(#grain)" opacity="0.35"/>
</svg>
